<svg xmlns="http://www.w3.org/2000/svg" viewBox="0 0 512 512">
  <rect width="512" height="512" fill="#4B6A9B"/>
  <path d="M256 56c110.5 0 200 89.5 200 200s-89.5 200-200 200S56 366.5 56 256 145.5 56 256 56zm0-56C114.6 0 0 114.6 0 256s114.6 256 256 256 256-114.6 256-256S397.4 0 256 0zm-40 368h80v-28.4c17.5-5.5 30-18 30-35.6 0-19.9-16.1-34.4-40-39.6-18.3-4-24-9.9-24-16.4 0-6.7 6.6-13.6 24-13.6 13.9 0 24.3 6.9 29.5 15.5l34-21c-8.5-16.4-25.5-27-43.5-30.4V144h-50v27.4c-18.4 4.5-30 17.5-30 35 0 19.3 16.3 32.7 39.5 37.8 19.9 4.4 24.5 9.7 24.5 17 0 8.3-8.1 14.8-24.5 14.8-15.6 0-27.4-8.1-32.9-19l-34.9 20c9.1 20.6 29 30.6 48.9 33.6V368z" fill="#ffffff"/>
</svg>
